<svg xmlns="http://www.w3.org/2000/svg" width="1200" height="244" viewBox="0 0 1200 244" role="img" aria-labelledby="title desc">
  <title id="title">Minecraft Panel</title>
  <desc id="desc">Currently in development. MINECRAFT / WEB PANEL. SOON ON GITHUB.</desc>
  <defs>
    <pattern id="grid" width="32" height="32" patternUnits="userSpaceOnUse">
      <path d="M 32 0 L 0 0 0 32" fill="none" stroke="#cdd3c0" stroke-width="0.6"/>
    </pattern>
    <radialGradient id="aura">
      <stop offset="0" stop-color="#496817" stop-opacity="0.13"/>
      <stop offset="1" stop-color="#496817" stop-opacity="0"/>
    </radialGradient>
  </defs>
  <style>
    text { font-family: Arial, Helvetica, sans-serif; }
    .mono { font-family: 'Courier New', Courier, monospace; }
    .float { animation: float 8s ease-in-out infinite; }
    .flow { stroke-dasharray: 5 18; animation: flow 24s linear infinite; }
    .pulse { animation: pulse 5s ease-in-out infinite; }
    .hero-mobile { display: none; }
    @media (max-width: 600px) { .hero-desktop { display: none; } .hero-mobile { display: inline; } }
    @keyframes float { 0%, 100% { transform: translateY(0); } 50% { transform: translateY(-8px); } }
    @keyframes flow { to { stroke-dashoffset: -276; } }
    @keyframes pulse { 0%, 100% { opacity: .45; } 50% { opacity: 1; } }
    @media (prefers-reduced-motion: reduce) { .float, .flow, .pulse { animation: none; } }
  </style>
  <rect x="0.5" y="0.5" width="1199" height="243" rx="18" fill="#f3f2e9" stroke="#cdd3c0"/>

    <path d="M32 190H1168M748 24V171" stroke="#cdd3c0"/>
    <rect x="778" y="22" width="342" height="156" fill="url(#grid)" opacity=".5"/>
    <text x="39" y="39" font-size="12" fill="#616d55" class="mono" letter-spacing="2">02 / NEXT BUILD</text>
    <text x="35" y="118" font-size="68" fill="#20271b" font-weight="900" letter-spacing="-3">Minecraft Panel</text>
    <text x="40" y="157" font-size="19" fill="#616d55" >Currently in development.</text>
    <g transform="translate(962 98)">
    <rect x="-131" y="-73" width="262" height="147" rx="10" fill="#e9ebdf" stroke="#7050b4" stroke-width="1.2"/>
    <path d="M-131-47H131" stroke="#cdd3c0"/>
    <circle cx="-114" cy="-60" r="3" fill="#496817" class="pulse"/>
    <circle cx="-101" cy="-60" r="3" fill="#cdd3c0"/>
    <circle cx="-88" cy="-60" r="3" fill="#cdd3c0"/>
    <path d="M71-60h43" stroke="#616d55" stroke-width="2"/>
    <rect x="-116" y="-31" width="51" height="90" rx="5" fill="#f3f2e9" stroke="#cdd3c0"/>
    <polygon points="-105.59,-12.00 -90.00,-3.00 -90.00,15.00 -105.59,6.00" fill="#dce8bd" stroke="#496817" stroke-width="1.15"/><polygon points="-90.00,-3.00 -74.41,-12.00 -74.41,6.00 -90.00,15.00" fill="#496817" stroke="#496817" stroke-width="1.15"/><polygon points="-90.00,-21.00 -74.41,-12.00 -90.00,-3.00 -105.59,-12.00" fill="#496817" stroke="#496817" stroke-width="1.15"/>
    <path d="M-105 31h30m-30 12h20" stroke="#616d55" stroke-width="2"/>
    <rect x="-50" y="-31" width="74" height="35" rx="5" fill="#f3f2e9" stroke="#cdd3c0"/>
    <rect x="36" y="-31" width="79" height="35" rx="5" fill="#f3f2e9" stroke="#cdd3c0"/>
    <path d="M-38-18h24m-24 11h46M48-18h24M48-7h55" stroke="#7050b4" stroke-width="2"/>
    <rect x="-50" y="17" width="165" height="42" rx="5" fill="#f3f2e9" stroke="#cdd3c0"/>
    <path d="M-38 46h15l13-16 19 10 17-6 16 9 20-17 16 6h25" fill="none" stroke="#496817" stroke-width="1.8"/>
    </g>
    <circle cx="1139" cy="45" r="17" fill="#e9ebdf" stroke="#cdd3c0"/>
    <text x="1139" y="49" font-size="10" fill="#496817" class="mono" text-anchor="middle">WIP</text>
    <text x="40" y="221" font-size="12" fill="#20271b" class="mono" letter-spacing="1">MINECRAFT / WEB PANEL</text>
    <text x="1156" y="221" font-size="11" fill="#616d55" class="mono" text-anchor="end">SOON ON GITHUB</text>

</svg>
